<svg id="visual" viewBox="0 0 900 600" width="900" height="600" xmlns="http://www.w3.org/2000/svg" xmlns:xlink="http://www.w3.org/1999/xlink" version="1.1"><rect x="0" y="0" width="900" height="600" fill="#4D075E"></rect><path d="M0 372L21.5 373.7C43 375.3 86 378.7 128.8 382.2C171.7 385.7 214.3 389.3 257.2 393.5C300 397.7 343 402.3 385.8 402.3C428.7 402.3 471.3 397.7 514.2 403C557 408.3 600 423.7 642.8 430.2C685.7 436.7 728.3 434.3 771.2 419.8C814 405.3 857 378.7 878.5 365.3L900 352L900 601L878.5 601C857 601 814 601 771.2 601C728.3 601 685.7 601 642.8 601C600 601 557 601 514.2 601C471.3 601 428.7 601 385.8 601C343 601 300 601 257.2 601C214.3 601 171.7 601 128.8 601C86 601 43 601 21.5 601L0 601Z" fill="#c716bc"></path><path d="M0 469L21.5 456.5C43 444 86 419 128.8 406.5C171.7 394 214.3 394 257.2 400.2C300 406.3 343 418.7 385.8 430.8C428.7 443 471.3 455 514.2 461C557 467 600 467 642.8 459.5C685.7 452 728.3 437 771.2 426.8C814 416.7 857 411.3 878.5 408.7L900 406L900 601L878.5 601C857 601 814 601 771.2 601C728.3 601 685.7 601 642.8 601C600 601 557 601 514.2 601C471.3 601 428.7 601 385.8 601C343 601 300 601 257.2 601C214.3 601 171.7 601 128.8 601C86 601 43 601 21.5 601L0 601Z" fill="#8d3bae"></path><path d="M0 505L21.5 499.8C43 494.7 86 484.3 128.8 473C171.7 461.7 214.3 449.3 257.2 454C300 458.7 343 480.3 385.8 486.7C428.7 493 471.3 484 514.2 473.3C557 462.7 600 450.3 642.8 454.2C685.7 458 728.3 478 771.2 479C814 480 857 462 878.5 453L900 444L900 601L878.5 601C857 601 814 601 771.2 601C728.3 601 685.7 601 642.8 601C600 601 557 601 514.2 601C471.3 601 428.7 601 385.8 601C343 601 300 601 257.2 601C214.3 601 171.7 601 128.8 601C86 601 43 601 21.5 601L0 601Z" fill="#5c4294"></path><path d="M0 488L21.5 494.3C43 500.7 86 513.3 128.8 514.7C171.7 516 214.3 506 257.2 505.5C300 505 343 514 385.8 518.8C428.7 523.7 471.3 524.3 514.2 522.5C557 520.7 600 516.3 642.8 512.2C685.7 508 728.3 504 771.2 505.8C814 507.7 857 515.3 878.5 519.2L900 523L900 601L878.5 601C857 601 814 601 771.2 601C728.3 601 685.7 601 642.8 601C600 601 557 601 514.2 601C471.3 601 428.7 601 385.8 601C343 601 300 601 257.2 601C214.3 601 171.7 601 128.8 601C86 601 43 601 21.5 601L0 601Z" fill="#3b3e70"></path><path d="M0 532L21.5 537.7C43 543.3 86 554.7 128.8 559.3C171.7 564 214.3 562 257.2 557.3C300 552.7 343 545.3 385.8 543.2C428.7 541 471.3 544 514.2 542.2C557 540.3 600 533.7 642.8 532C685.7 530.3 728.3 533.7 771.2 536C814 538.3 857 539.7 878.5 540.3L900 541L900 601L878.5 601C857 601 814 601 771.2 601C728.3 601 685.7 601 642.8 601C600 601 557 601 514.2 601C471.3 601 428.7 601 385.8 601C343 601 300 601 257.2 601C214.3 601 171.7 601 128.8 601C86 601 43 601 21.5 601L0 601Z" fill="#2e3447"></path></svg>